<?xml version="1.0" encoding="UTF-8"?>
<svg xmlns="http://www.w3.org/2000/svg" width="27" height="26" viewBox="0 0 27 26" fill="none">
  <path d="M23.4042 5.78906H4.42279L1.89453 10.8859L13.9135 25.8141L25.9324 10.8922L23.4042 5.78906ZM17.9527 11.1563L13.9135 24.2984L9.87425 11.1563H17.9527ZM14.9218 10.5313L19.4098 6.69219L24.3272 10.5313H14.9218ZM13.9763 10.5313H13.897L9.07239 6.41406H18.7965L13.9763 10.5313ZM12.9515 10.5313H3.53565L8.45304 6.69219L12.9515 10.5313ZM9.25341 11.1563L13.1655 23.9062L2.89387 11.1563H9.25341ZM18.581 11.1563H24.9376L14.6615 23.9062L18.581 11.1563ZM24.9316 10.2188L20.0561 6.41406H23.0391L24.9316 10.2188ZM4.78782 6.41406H7.80976L2.87292 10.2672L4.78782 6.41406Z" fill="#0F1111"></path>
  <path d="M14.2117 0.195312H13.6133V3.74375H14.2117V0.195312Z" fill="#0F1111"></path>
  <path d="M1.29228 1.07759L0.869141 1.51953L3.2112 3.96568L3.63433 3.52374L1.29228 1.07759Z" fill="#0F1111"></path>
  <path d="M26.5354 1.07729L24.1934 3.52344L24.6165 3.96538L26.9586 1.51923L26.5354 1.07729Z" fill="#0F1111"></path>
</svg>
