<?xml version="1.0" encoding="UTF-8"?>
<svg xmlns="http://www.w3.org/2000/svg" width="26" height="34" viewBox="0 0 26 34" fill="none">
  <path d="M21.154 33.618H5.16406V25.6211H21.154V33.618ZM5.87676 32.868H20.4359V26.3711H5.88215L5.87676 32.868Z" fill="#0F1111"></path>
  <path d="M19.0611 30.9792H7.27734V27.7148H19.0611V30.9792ZM7.99543 30.2292H18.343V28.4648H7.99543V30.2292Z" fill="#0F1111"></path>
  <path d="M20.7953 26.3711H5.52344V25.6211C7.45338 25.6186 9.30359 24.8168 10.6683 23.3914C12.0329 21.9661 12.8007 20.0337 12.803 18.018V17.9336H13.5211V18.0236C13.5249 20.0374 14.2925 21.9675 15.6559 23.3915C17.0192 24.8154 18.8672 25.6171 20.7953 25.6211V26.3711ZM8.82842 25.6211H17.4831C16.4578 25.1315 15.5426 24.4221 14.7969 23.5389C14.0512 22.6557 13.4917 21.6186 13.1549 20.4948C12.8188 21.6179 12.2605 22.6546 11.5161 23.5377C10.7717 24.4208 9.85782 25.1306 8.83381 25.6211H8.82842Z" fill="#0F1111"></path>
  <path d="M13.1958 18.3072H13.1276C11.6774 18.2806 10.2513 17.9155 8.95376 17.2384C7.22497 16.3009 5.16406 14.3172 5.16406 10.1603V4.19219L9.23381 3.06719C11.809 2.36302 14.5144 2.36302 17.0897 3.06719L21.1594 4.19219V10.1547C21.1594 14.3116 19.0985 16.2991 17.3697 17.2328C16.0726 17.9118 14.6465 18.2789 13.1958 18.3072ZM13.1546 17.5572H13.1958C13.9373 17.5572 20.4413 17.3491 20.4413 10.1603V4.76969L16.9065 3.79844C14.4514 3.1269 11.8721 3.1269 9.41692 3.79844L5.88215 4.76969V10.1547C5.88215 17.3453 12.3862 17.5516 13.1276 17.5516L13.1546 17.5572Z" fill="#0F1111"></path>
  <path d="M17.6597 4.0073L16.9057 3.80105C14.4506 3.12943 11.8712 3.12943 9.4161 3.80105L8.66211 4.0073V0.694173L8.92242 0.617299C11.6937 -0.205766 14.6299 -0.205766 17.4012 0.617299L17.6615 0.694173L17.6597 4.0073ZM13.1609 2.5448C14.4357 2.54489 15.7056 2.7099 16.9416 3.03605V1.2623C14.4632 0.577011 11.8568 0.577011 9.3784 1.2623V3.03605C10.6149 2.70911 11.8854 2.54347 13.1609 2.54292V2.5448Z" fill="#0F1111"></path>
  <path d="M20.2686 14.088H20.1465V13.338H20.2686C22.7926 13.338 24.8535 11.3242 24.9612 8.75359C24.9612 8.67672 24.9612 8.59984 24.9612 8.52109V6.63672H20.7946V5.88672H25.6793V8.52109C25.6793 8.60922 25.6793 8.69922 25.6793 8.78547C25.5555 11.7592 23.1786 14.088 20.2686 14.088Z" fill="#0F1111"></path>
  <path d="M6.22764 14.2136H5.8686C4.82539 14.2251 3.80185 13.9169 2.92468 13.327C2.04751 12.7371 1.35523 11.8915 0.933561 10.8948C0.624289 10.1452 0.465434 9.33735 0.466806 8.52109V5.88672H5.52392V6.63672H1.18489V8.52109C1.1817 9.23501 1.31856 9.94204 1.58702 10.5986C1.95336 11.4603 2.55349 12.1909 3.31318 12.7001C4.07287 13.2093 4.95881 13.4747 5.86142 13.4636H6.22046L6.22764 14.2136Z" fill="#0F1111"></path>
</svg>
