<?xml version="1.0" encoding="UTF-8"?>
<svg xmlns="http://www.w3.org/2000/svg" width="35" height="33" viewBox="0 0 35 33" fill="none">
  <path d="M17.5925 24.3257L16.8213 26.6487C16.7087 26.5886 16.5924 26.5366 16.473 26.4931C16.3565 26.4523 16.2377 26.4191 16.1172 26.3939L16.8455 24.2031C17.0914 24.2537 17.3392 24.2965 17.5925 24.3257Z" fill="#0F1111"></path>
  <path d="M18.024 27.9294C17.768 27.3764 17.3452 26.9266 16.8206 26.6492C16.708 26.5891 16.5916 26.5371 16.4723 26.4936C16.3558 26.4528 16.2369 26.4196 16.1165 26.3943C15.9436 26.3577 15.7676 26.3394 15.5912 26.3399C14.9498 26.3398 14.3291 26.5772 13.8395 27.0099C13.3498 27.4425 13.0227 28.0424 12.9164 28.7031C12.8101 29.3637 12.9314 30.0423 13.2588 30.6184C13.5861 31.1945 14.0983 31.6307 14.7045 31.8497C15.2115 32.0308 15.7586 32.051 16.2766 31.9079C16.7946 31.7647 17.2605 31.4646 17.6155 31.0453C17.9705 30.6261 18.1987 30.1065 18.2714 29.552C18.3441 28.9974 18.258 28.4329 18.024 27.9294ZM17.4446 29.84C17.323 30.2078 17.1037 30.532 16.8123 30.7747C16.5209 31.0173 16.1695 31.1684 15.799 31.2104C15.4285 31.2524 15.0542 31.1834 14.7198 31.0117C14.3854 30.8399 14.1046 30.5724 13.9103 30.2403C13.7159 29.9082 13.616 29.5252 13.6221 29.136C13.6283 28.7468 13.7402 28.3675 13.9449 28.0423C14.1496 27.717 14.4386 27.4593 14.7783 27.2991C15.1179 27.1389 15.4942 27.0829 15.8631 27.1375C15.9856 27.1556 16.106 27.1862 16.2227 27.229C16.3422 27.2712 16.4576 27.3253 16.5673 27.3905C16.9615 27.6299 17.2639 28.0048 17.4229 28.4512C17.5819 28.8975 17.5876 29.3877 17.4391 29.838L17.4446 29.84Z" fill="#0F1111"></path>
  <path d="M10.9531 19.7422C10.968 19.7694 10.9829 19.7986 10.9997 19.8258L11.0109 19.7772L10.9531 19.7422Z" fill="#0F1111"></path>
  <path d="M10.9531 19.7422C10.968 19.7694 10.9829 19.7986 10.9997 19.8258L11.0109 19.7772L10.9531 19.7422Z" fill="#0F1111"></path>
  <path d="M27.3398 15.5011C27.3398 15.4271 27.3398 15.3532 27.3398 15.2773V15.2268C27.3398 15.1898 27.3398 15.1509 27.3398 15.1139C27.5261 14.9077 27.7124 14.6995 27.867 14.4952C28.9083 13.1586 29.32 11.8473 28.8953 10.785C28.4221 9.60207 27.0064 8.93085 24.9033 8.89388C24.7021 8.67598 24.4935 8.46975 24.2737 8.27324C24.0539 8.07674 23.8844 7.9386 23.6776 7.7849C23.6348 7.75183 23.5901 7.71875 23.5435 7.68762C23.5938 6.2654 23.2622 5.21284 22.5115 4.73812C21.7179 4.23616 20.0731 4.54356 18.4283 6.07084C17.1789 6.09087 15.9483 6.39145 14.82 6.95219C14.5946 7.06504 14.3767 7.18566 14.1625 7.31796C14.1233 7.33936 14.0842 7.36466 14.047 7.388C12.0668 6.43467 10.4592 6.39381 9.48686 7.27905C8.22389 8.4464 8.34497 10.9757 9.8054 14.0886C9.82402 14.1294 9.84451 14.1703 9.865 14.2131C9.85383 14.3247 9.84452 14.4355 9.83706 14.5458C9.57255 14.647 9.32666 14.754 9.09195 14.8649C7.83829 15.4816 7.17141 16.2462 7.14533 17.1159C7.1118 18.2249 8.13447 19.2347 10.0625 20.0343L10.1724 20.1374C9.79981 22.3223 10.0997 23.871 11.0665 24.4819C11.3577 24.6619 11.6912 24.7535 12.0296 24.7465C12.8306 24.7465 13.8029 24.3146 14.848 23.5286C15.4815 23.8404 16.1489 24.0711 16.8356 24.2153C17.0815 24.2679 17.3292 24.3087 17.5807 24.3379C17.9078 24.377 18.2368 24.3965 18.5661 24.3963C18.7841 24.3963 19.002 24.3963 19.2162 24.371C20.36 24.9547 21.3845 25.2562 22.247 25.2562C22.9027 25.2842 23.5451 25.0576 24.0502 24.62C24.758 23.9702 25.0188 22.904 24.8828 21.583C24.9648 21.4954 25.0449 21.404 25.1231 21.3125C25.2889 21.118 25.4473 20.9234 25.5963 20.7055C25.6072 20.6927 25.6172 20.6791 25.6261 20.6647C27.8055 19.9934 29.0201 18.9915 29.0555 17.8397C29.0871 16.9778 28.5004 16.1859 27.3398 15.5011ZM28.2116 11.0866C28.5339 11.892 28.1576 12.9426 27.2802 14.0477C27.0852 12.4726 26.4988 10.9781 25.5795 9.71297C26.9636 9.85111 27.9117 10.3375 28.2116 11.0866ZM26.5891 14.8085C26.5221 14.8765 26.4532 14.9446 26.3805 15.003C26.1942 14.9213 26.008 14.8415 25.7975 14.7637C24.5335 14.3031 23.2296 13.9721 21.9042 13.7753C22.7443 11.8648 23.279 10.0787 23.4708 8.58259C24.392 9.32231 25.148 10.2625 25.6865 11.3379C26.225 12.4133 26.533 13.5982 26.5891 14.8104V14.8085ZM21.8539 14.5653C23.1114 14.7549 24.3485 15.0709 25.5478 15.5089L25.7528 15.5886C25.0311 16.1942 24.2671 16.7424 23.4671 17.2288C22.9893 16.3035 22.4503 15.4141 21.8539 14.5672V14.5653ZM22.8077 17.612C22.116 18.0019 21.406 18.3551 20.6804 18.6704C20.006 18.9642 19.3317 19.223 18.6648 19.4487C19.2657 18.6153 19.8253 17.7504 20.3413 16.8572C20.6841 16.2657 21.0014 15.682 21.2932 15.1061C21.8513 15.9057 22.3572 16.7435 22.8077 17.614V17.612ZM22.1296 5.40545C22.5525 5.672 22.7835 6.30626 22.8095 7.21096C21.8059 6.62917 20.7017 6.26147 19.5608 6.12921C20.7325 5.2751 21.7422 5.1642 22.1296 5.4074V5.40545ZM18.5773 6.84908C20.0601 6.84748 21.514 7.2773 22.776 8.09036C22.6438 9.54565 22.1166 11.4679 21.1572 13.6119C20.9089 13.2877 20.6481 12.9634 20.3749 12.6391C18.635 10.569 16.6921 8.87443 14.848 7.81214C15.9973 7.17845 17.2777 6.84846 18.5773 6.85102V6.84908ZM14.1066 8.28103C15.9861 9.27522 18.0184 11.0048 19.8216 13.145C19.9371 13.2812 20.0489 13.4193 20.1607 13.5574C19.5329 13.4971 18.8884 13.4563 18.2364 13.4349C15.3751 13.3415 12.6685 13.6294 10.6138 14.2656C10.7475 13.0647 11.1283 11.9082 11.7302 10.8755C12.3322 9.84283 13.1409 8.95841 14.101 8.28297L14.1066 8.28103ZM9.42352 18.8572C8.43438 18.3124 7.88113 17.7074 7.8979 17.1354C7.91653 16.5225 8.61321 15.896 9.81285 15.3843C9.81919 15.7614 9.84844 16.1377 9.9004 16.5108C9.4347 17.3669 9.2745 18.1607 9.42352 18.8572ZM9.98236 7.86467C10.6418 7.25765 11.8452 7.281 13.3205 7.90942C11.7425 9.14591 10.6087 10.9009 10.1016 12.8921C9.15528 10.5398 9.10126 8.6682 9.97864 7.86467H9.98236ZM10.3773 19.2094C10.3166 19.1218 10.266 19.0271 10.2264 18.9273C10.0988 18.5789 10.0818 18.1969 10.178 17.8377C10.2653 18.1507 10.3704 18.458 10.4928 18.758C10.4481 18.9097 10.4089 19.0596 10.3735 19.2074L10.3773 19.2094ZM10.5636 15.2306C10.5636 15.1898 10.5636 15.147 10.5636 15.1061C10.6455 15.0789 10.7275 15.0517 10.8132 15.0264C12.7952 14.4174 15.4236 14.1314 18.2122 14.2228C19.0951 14.252 19.9595 14.3182 20.7903 14.4174C20.4699 15.0789 20.1104 15.7579 19.7099 16.4486C19.034 17.6219 18.2789 18.7435 17.4503 19.8047C16.2432 20.1365 15.0025 20.3167 13.7545 20.3417H13.7135C13.179 20.3474 12.6453 20.2959 12.1208 20.188C11.1034 18.7523 10.5548 17.013 10.5561 15.2268L10.5636 15.2306ZM11.0181 19.7794L11.0069 19.8281C10.9901 19.8008 10.9752 19.7716 10.9603 19.7444L11.0181 19.7794ZM11.467 23.8068C10.8318 23.3982 10.6232 22.2308 10.8653 20.5752C11.1276 20.7043 11.4016 20.806 11.6831 20.8787C12.3553 21.7718 13.1802 22.5271 14.1159 23.1064C12.9721 23.904 12.0203 24.1589 11.4596 23.8068H11.467ZM14.7846 22.6044C14.0703 22.2029 13.4189 21.6899 12.8529 21.083C13.1249 21.1082 13.4118 21.1199 13.7135 21.1199H13.7601C14.724 21.1061 15.6845 20.9973 16.6288 20.795C16.0582 21.4475 15.439 22.0519 14.7772 22.6025L14.7846 22.6044ZM18.5847 23.6083C18.337 23.6083 18.0911 23.5966 17.8489 23.5733C17.6068 23.55 17.3441 23.513 17.1038 23.4643C16.5669 23.3584 16.0419 23.1948 15.5372 22.976C16.3881 22.2236 17.1724 21.3928 17.8806 20.4934C18.9375 20.2008 19.9739 19.8322 20.9821 19.3903C21.7496 19.0557 22.4724 18.6938 23.1597 18.3124C23.612 19.2528 23.938 20.2539 24.1284 21.2872C22.6352 22.7819 20.6455 23.6138 18.5773 23.6083H18.5847ZM23.577 24.0247C22.9753 24.5772 21.9322 24.6083 20.6301 24.1356C21.9451 23.806 23.1688 23.162 24.2048 22.2542C24.1917 23.0266 23.9906 23.6375 23.5696 24.0227L23.577 24.0247ZM24.7413 20.5946C24.5239 19.673 24.2116 18.7786 23.8099 17.9272C24.7709 17.351 25.6794 16.6842 26.5239 15.9349L26.5761 15.9602C26.4338 17.6664 25.7904 19.285 24.7338 20.5946H24.7413ZM26.2855 19.6043C26.8103 18.6045 27.149 17.51 27.284 16.3785C27.9695 16.8455 28.342 17.3513 28.329 17.8046C28.301 18.4409 27.5559 19.0887 26.2781 19.6024L26.2855 19.6043Z" fill="#0F1111"></path>
  <path d="M27.018 5.80632L24.2797 8.2772C24.0934 8.10599 23.8904 7.94256 23.6836 7.78886L26.5299 5.21875C26.6156 5.34908 26.7096 5.47323 26.8112 5.59036C26.8764 5.66618 26.9454 5.73827 27.018 5.80632Z" fill="#0F1111"></path>
  <path d="M30.6651 14.8891C30.6652 15.0195 30.6758 15.1497 30.6968 15.2782H27.3438V15.2276C27.3438 15.1907 27.3438 15.1518 27.3438 15.1148C27.53 14.9086 27.7163 14.7004 27.8709 14.4961H30.6949C30.6744 14.626 30.6644 14.7575 30.6651 14.8891Z" fill="#0F1111"></path>
  <path d="M14.8235 6.95125C14.5981 7.0641 14.3801 7.18472 14.1659 7.31702L12.4316 3.8675C12.6697 3.77434 12.8866 3.63057 13.0687 3.44531L14.8235 6.95125Z" fill="#0F1111"></path>
  <path d="M27.5155 22.7032C27.408 22.7764 27.3081 22.8612 27.2175 22.9561C27.1307 23.0464 27.0527 23.1455 26.9846 23.2518L25.1367 21.3062C25.3025 21.1117 25.4608 20.9171 25.6099 20.6992L27.5155 22.7032Z" fill="#0F1111"></path>
  <path d="M9.86815 14.2046C9.85697 14.3161 9.84766 14.427 9.84021 14.5373C9.57569 14.6385 9.3298 14.7455 9.09509 14.8564H4.53125C4.58143 14.5996 4.58143 14.3349 4.53125 14.0781H9.80854C9.82716 14.1229 9.84766 14.1637 9.86815 14.2046Z" fill="#0F1111"></path>
  <path d="M32.8157 12.6406C32.3104 12.6419 31.8216 12.8285 31.4345 13.1677C31.0475 13.5069 30.7867 13.9772 30.6977 14.4967C30.6555 14.7542 30.6555 15.0174 30.6977 15.2749C30.7686 15.6959 30.9531 16.0869 31.2294 16.4021C31.5057 16.7173 31.8625 16.9436 32.2577 17.0543C32.6529 17.1651 33.0702 17.1557 33.4605 17.0274C33.8508 16.899 34.1979 16.6569 34.461 16.3297C34.7242 16.0024 34.8924 15.6034 34.946 15.1797C34.9995 14.756 34.9362 14.3252 34.7634 13.9378C34.5906 13.5503 34.3156 13.2225 33.9705 12.9927C33.6255 12.7629 33.2249 12.6408 32.8157 12.6406ZM32.8157 16.3528C32.5083 16.3527 32.2095 16.2472 31.9652 16.0524C31.7208 15.8577 31.5445 15.5845 31.4633 15.2749C31.3937 15.0206 31.3937 14.751 31.4633 14.4967C31.5331 14.2332 31.6719 13.9954 31.8642 13.8099C32.0565 13.6245 32.2946 13.4989 32.5516 13.4472C32.8086 13.3956 33.0744 13.42 33.3188 13.5176C33.5633 13.6153 33.7767 13.7824 33.9351 14C34.0935 14.2176 34.1906 14.4771 34.2153 14.7493C34.24 15.0214 34.1914 15.2953 34.075 15.5402C33.9586 15.785 33.779 15.991 33.5565 16.1349C33.334 16.2789 33.0774 16.355 32.8157 16.3547V16.3528Z" fill="#0F1111"></path>
  <path d="M31.5395 1.09642C30.9959 0.470053 30.2451 0.0823983 29.4385 0.0117013C28.6319 -0.0589956 27.8297 0.19253 27.1937 0.715508C26.5578 1.23849 26.1354 1.99397 26.012 2.82948C25.8886 3.66498 26.0732 4.51829 26.5286 5.21716C26.6143 5.34749 26.7083 5.47164 26.8099 5.58877C26.8751 5.66459 26.9441 5.73668 27.0167 5.80473C27.6237 6.38255 28.4203 6.6942 29.2413 6.67506C30.0624 6.65592 30.8449 6.30745 31.4266 5.70193C32.0082 5.0964 32.3445 4.28027 32.3655 3.42279C32.3865 2.56531 32.0908 1.73226 31.5395 1.09642ZM30.8224 5.23662C30.3725 5.6658 29.7849 5.90323 29.1757 5.90201C28.5929 5.90139 28.0292 5.68492 27.5848 5.29109C27.5054 5.22137 27.4307 5.14596 27.3613 5.06541C27.2641 4.95275 27.1763 4.83169 27.0987 4.70353C26.8507 4.29099 26.7206 3.81316 26.7236 3.3261C26.7265 2.83905 26.8624 2.36298 27.1153 1.95376C27.3683 1.54455 27.7277 1.21916 28.1514 1.0158C28.5752 0.812442 29.0457 0.739539 29.5077 0.80565C29.9697 0.87176 30.4041 1.07414 30.7599 1.38904C31.1156 1.70394 31.378 2.1183 31.5162 2.58348C31.6545 3.04866 31.6628 3.54537 31.5402 4.01531C31.4176 4.48525 31.1693 4.90893 30.8242 5.23662H30.8224Z" fill="#0F1111"></path>
  <path d="M13.0783 0.689122C12.8192 0.416166 12.4885 0.229472 12.128 0.152596C11.7674 0.0757207 11.3931 0.112108 11.0523 0.257167C10.7115 0.402225 10.4195 0.649456 10.2131 0.967664C10.0067 1.28587 9.89522 1.6608 9.89262 2.04514C9.89003 2.42949 9.99649 2.80602 10.1986 3.12724C10.4006 3.44845 10.6893 3.69996 11.0281 3.85003C11.3669 4.00009 11.7406 4.04199 12.1022 3.97043C12.4637 3.89887 12.7969 3.71707 13.0596 3.44796L13.0783 3.4285C13.2506 3.24871 13.3874 3.0352 13.4806 2.80018C13.5739 2.56515 13.6219 2.31323 13.6219 2.05881C13.6219 1.80439 13.5739 1.55247 13.4806 1.31745C13.3874 1.08242 13.2506 0.868913 13.0783 0.689122ZM10.9826 2.8779C10.7767 2.65952 10.6613 2.36531 10.6613 2.05881C10.6613 1.75231 10.7767 1.4581 10.9826 1.23972C11.1383 1.07467 11.3374 0.961717 11.5546 0.91522C11.7719 0.868724 11.9975 0.890793 12.2027 0.978617C12.408 1.06644 12.5835 1.21605 12.7071 1.40841C12.8307 1.60076 12.8967 1.82717 12.8967 2.05881C12.8967 2.29045 12.8307 2.51686 12.7071 2.70921C12.5835 2.90157 12.408 3.05118 12.2027 3.13901C11.9975 3.22683 11.7719 3.2489 11.5546 3.2024C11.3374 3.15591 11.1383 3.04295 10.9826 2.8779Z" fill="#0F1111"></path>
  <path d="M29.8318 22.9506C29.6597 22.7706 29.4552 22.6278 29.2302 22.5304C29.0052 22.433 28.764 22.3828 28.5204 22.3828C28.2768 22.3828 28.0356 22.433 27.8106 22.5304C27.5856 22.6278 27.3811 22.7706 27.209 22.9506C27.1223 23.041 27.0443 23.14 26.9761 23.2464C26.7386 23.6473 26.6484 24.1246 26.7225 24.5897C26.7966 25.0547 27.0299 25.4759 27.3789 25.7748C27.728 26.0738 28.1691 26.2302 28.6203 26.2149C29.0714 26.1997 29.502 26.0138 29.8318 25.692C30.1782 25.3275 30.3726 24.8348 30.3726 24.3213C30.3726 23.8078 30.1782 23.3151 29.8318 22.9506ZM29.3102 25.1453C29.1537 25.3056 28.9554 25.4142 28.7402 25.4577C28.5249 25.5012 28.3022 25.4777 28.0996 25.39C27.8971 25.3022 27.7238 25.1542 27.6012 24.9644C27.4786 24.7746 27.4122 24.5513 27.4102 24.3223C27.4096 24.149 27.4472 23.9779 27.5201 23.8223C27.5732 23.7032 27.6464 23.5952 27.7362 23.5032C27.8269 23.4074 27.9336 23.3296 28.051 23.2736C28.2575 23.1741 28.4881 23.1428 28.7121 23.1838C28.9362 23.2248 29.1428 23.3363 29.3046 23.5032C29.5124 23.721 29.6295 24.0156 29.6306 24.323C29.6316 24.6305 29.5165 24.9259 29.3102 25.1453Z" fill="#0F1111"></path>
  <path d="M4.52896 14.0799C4.44443 13.647 4.22129 13.2569 3.89626 12.974C3.57124 12.6911 3.16369 12.5322 2.74068 12.5235H2.71088C2.21683 12.5201 1.74175 12.7219 1.39014 13.0844C1.03853 13.4469 0.839188 13.9404 0.835977 14.4564C0.832766 14.9724 1.02594 15.4686 1.37301 15.8359C1.72008 16.2031 2.19262 16.4113 2.68666 16.4146H2.7146C3.14211 16.4121 3.55576 16.256 3.88612 15.9725C4.21649 15.6891 4.44346 15.2957 4.52896 14.8582C4.57914 14.6014 4.57914 14.3367 4.52896 14.0799ZM2.7146 15.6364H2.69784C2.40141 15.6323 2.1187 15.5053 1.91189 15.2835C1.70508 15.0617 1.59111 14.7631 1.59506 14.4535C1.59902 14.1439 1.72056 13.8486 1.93296 13.6326C2.14536 13.4166 2.43122 13.2976 2.72764 13.3017C2.95408 13.3075 3.17347 13.3851 3.35677 13.524C3.54007 13.663 3.67861 13.8569 3.75404 14.0799C3.84112 14.3314 3.84112 14.6067 3.75404 14.8582C3.67783 15.0834 3.5373 15.2788 3.35143 15.4179C3.16555 15.5571 2.94328 15.6333 2.7146 15.6364Z" fill="#0F1111"></path>
</svg>
