<svg id="visual" viewBox="0 0 900 600" width="900" height="600" xmlns="http://www.w3.org/2000/svg" xmlns:xlink="http://www.w3.org/1999/xlink" version="1.1"><path d="M0 516L16.7 503.2C33.3 490.3 66.7 464.7 100 449.3C133.3 434 166.7 429 200 447C233.3 465 266.7 506 300 521.8C333.3 537.7 366.7 528.3 400 508.5C433.3 488.7 466.7 458.3 500 457.8C533.3 457.3 566.7 486.7 600 506.8C633.3 527 666.7 538 700 541.8C733.3 545.7 766.7 542.3 800 525C833.3 507.7 866.7 476.3 883.3 460.7L900 445L900 601L883.3 601C866.7 601 833.3 601 800 601C766.7 601 733.3 601 700 601C666.7 601 633.3 601 600 601C566.7 601 533.3 601 500 601C466.7 601 433.3 601 400 601C366.7 601 333.3 601 300 601C266.7 601 233.3 601 200 601C166.7 601 133.3 601 100 601C66.7 601 33.3 601 16.7 601L0 601Z" fill="#a10000" stroke-linecap="round" stroke-linejoin="miter"></path></svg>